<svg width="34" height="34" viewBox="0 0 34 34" fill="none" xmlns="http://www.w3.org/2000/svg">
<path fill-rule="evenodd" clip-rule="evenodd" d="M17 34C26.3888 34 34 26.3888 34 17C34 7.61116 26.3888 0 17 0C7.61116 0 0 7.61116 0 17C0 26.3888 7.61116 34 17 34ZM17 28C23.0751 28 28 23.0751 28 17C28 10.9249 23.0751 6.00001 17 6.00001C10.9249 6.00001 6.00001 10.9249 6.00001 17C6.00001 23.0751 10.9249 28 17 28Z" fill="url(#paint0_radial_114_2)"/>
<path fill-rule="evenodd" clip-rule="evenodd" d="M17 26C21.9706 26 26 21.9706 26 17C26 12.0294 21.9706 8 17 8C12.0294 8 8 12.0294 8 17C8 21.9706 12.0294 26 17 26ZM13.7 15.51L15.5 21H18.51L20.3 15.51L20.6 14.52V13.92H18.31L17.12 18.98H16.92L15.72 13.92H13.4V14.52L13.7 15.51Z" fill="url(#paint1_radial_114_2)"/>
<defs>
<radialGradient id="paint0_radial_114_2" cx="0" cy="0" r="1" gradientUnits="userSpaceOnUse" gradientTransform="translate(17 1.78759) rotate(90) scale(33.9642)">
<stop stop-color="#43D3DF"/>
<stop offset="0.567708" stop-color="#1799A5"/>
</radialGradient>
<radialGradient id="paint1_radial_114_2" cx="0" cy="0" r="1" gradientUnits="userSpaceOnUse" gradientTransform="translate(17 8.94637) rotate(90) scale(17.9811)">
<stop stop-color="#43D3DF"/>
<stop offset="0.567708" stop-color="#1799A5"/>
</radialGradient>
</defs>
</svg>
